<svg xmlns:x="http://ns.adobe.com/Extensibility/1.0/" xmlns:i="http://ns.adobe.com/AdobeIllustrator/10.0/" xmlns:graph="http://ns.adobe.com/Graphs/1.0/" xmlns="http://www.w3.org/2000/svg" xmlns:xlink="http://www.w3.org/1999/xlink" version="1.1" x="0px" y="0px" viewBox="0 0 100 100" enable-background="new 0 0 100 100" xml:space="preserve"><metadata><sfw xmlns="http://ns.adobe.com/SaveForWeb/1.0/"><slices/><sliceSourceBounds height="1780.628" width="870" bottomLeftOrigin="true" x="-192" y="-1744.628"/></sfw></metadata><g><path fill="#000000" d="M94.119,47.454c-0.107-0.418-0.445-0.742-0.869-0.831c-0.428-0.089-0.865,0.075-1.131,0.418   c-0.922,1.183-1.699,1.036-2.396,0.698c-1.344-0.646-2.508-1.423-3.479-2.321c-1.879-1.685-3.586-3.517-5.154-5.53   c-4.713-4.917-10.492-7.739-17.209-8.384c-2.486-0.196-4.766-0.036-7.678,0.498c0.191-1.321,0.258-2.668,0.158-4.028   c-0.359-4.877-2.596-9.322-6.295-12.519c-3.324-2.867-7.57-4.445-11.955-4.445c-5.332,0-10.385,2.312-13.863,6.344   c-0.418,0.479-0.816,0.995-1.191,1.538l-11.285-9.74c-0.406-0.352-1.012-0.347-1.41,0.014c-0.398,0.355-0.473,0.955-0.17,1.396   l6.727,9.82L6.572,14.819c-0.48-0.263-1.076-0.115-1.383,0.333c-0.311,0.449-0.23,1.059,0.18,1.414l14.434,12.461   c-0.084,5.446,2.209,10.58,6.34,14.146c2.404,2.076,5.293,3.464,8.369,4.081c-0.021,0.076-0.057,0.143-0.061,0.228   c-0.312,4.863,0.053,8.939,1.15,12.843c1.125,3.863,3.094,7.304,5.895,10.261c3.543,3.387,7.832,5.512,12.871,6.326   c0.377,0.018,0.766-0.014,1.148-0.022l-0.27,2.196c-0.012,0.11-0.008,0.222,0.01,0.333l0.143,0.818   c-2.383,0.885-4.535,2.223-6.398,3.97c-1.266,1.16-3.004,2.743-2.266,4.654c0.248,0.636,1.072,1.951,3.625,1.472l0.225,0.311   c0.213,0.294,0.555,0.467,0.92,0.467h0.684c0.477,0,0.947-0.115,1.707-0.436c0.395-0.195,0.785-0.359,1.174-0.493l0.49-0.16   c0.025,0.031,0.053,0.066,0.084,0.103l0.52,0.498c0.209,0.2,0.494,0.315,0.787,0.315h0.541c0.674,0,1.326-0.249,2.053-0.787   c1.986-1.453,3.588-3.214,4.973-5.504c0.789-1.773,0.822-3.24,0.098-4.356c-0.281-0.431-1.043-1.315-2.637-1.476l0.463-1.569   c0.018-0.049,0.008-0.103,0.014-0.155c1.564,0.258,3.152,0.418,4.762,0.418c0.352,0,0.701-0.005,1.053-0.019l2.457-0.169   c0.469-0.053,0.947-0.129,1.426-0.213c0,0,0.789-0.062,1.67-0.183l0.213,1.525c-1.91,0.857-3.666,2.022-5.254,3.498   c-0.223,0.227-0.424,0.423-0.596,0.569c-0.391,0.333-0.76,0.765-1.096,1.275c-0.58,0.872-0.654,1.85-0.207,2.686   c0.449,0.84,1.383,1.289,2.48,1.312l0.656-0.089c0.025-0.009,0.051-0.018,0.078-0.022c0.043,0.071,0.092,0.143,0.146,0.214   l0.537,0.547c0.217,0.218,0.508,0.342,0.814,0.342h0.584c0.465,0,0.916-0.111,1.771-0.476c0.334-0.204,0.67-0.364,0.93-0.458   l0.508-0.138c0.025,0.035,0.053,0.071,0.08,0.103l0.52,0.52c0.213,0.214,0.502,0.334,0.805,0.334h0.555   c0.676,0,1.318-0.245,2.115-0.813c1.979-1.498,3.633-3.353,4.918-5.521c0.807-1.392,0.973-2.654,0.496-3.748   c-0.246-0.56-0.893-1.556-2.484-1.911c-0.719-0.16-1.453-0.218-2.15-0.156l-0.201-1.658c1.389-0.56,2.686-1.183,3.814-1.845   c0.023-0.013,0.037-0.035,0.057-0.053c0.008,0,0.016,0,0.023,0c0.01-0.005,0.018-0.01,0.025-0.01   c0.096-0.021,0.186-0.058,0.273-0.106c6.293-3.44,9.877-8.784,10.656-15.901C95.172,53.749,94.914,50.558,94.119,47.454z    M27.537,41.555c-3.766-3.249-5.801-7.971-5.584-12.959c0.014-0.324-0.123-0.64-0.369-0.854l-7.457-6.437l5.646,3.036   c0.438,0.235,0.971,0.143,1.301-0.227c0.328-0.364,0.363-0.911,0.086-1.316L16.6,16.14l5.992,5.17   c0.24,0.209,0.561,0.303,0.869,0.249c0.311-0.053,0.582-0.235,0.746-0.507c0.498-0.836,1.055-1.609,1.654-2.303   c3.076-3.561,7.539-5.605,12.25-5.605c3.875,0,7.621,1.396,10.559,3.93c3.27,2.818,5.244,6.748,5.561,11.056   c0.316,4.309-1.064,8.482-3.885,11.75c-3.074,3.562-7.537,5.606-12.248,5.606c-0.002,0-0.002,0-0.002,0   C34.225,45.485,30.471,44.089,27.537,41.555z M62.701,81.529c0.281,0.427,0.191,1.165-0.197,2.063   c-1.158,1.902-2.566,3.445-4.311,4.726c-0.461,0.342-0.645,0.342-0.703,0.342l-0.242-0.231c-0.121-0.604-0.691-1.004-1.301-0.906   c-0.062,0.009-0.289,0.053-0.35,0.075l-1.268,0.432c-0.486,0.164-0.975,0.369-1.381,0.582c-0.365,0.146-0.613,0.223-0.762,0.223   l-0.186-0.111c-0.082-0.294-0.281-0.547-0.549-0.693c-0.27-0.146-0.588-0.178-0.881-0.094c-1.172,0.36-1.67,0.218-1.713,0.103   c-0.178-0.458,1.217-1.734,1.689-2.165c1.863-1.747,4.045-3.023,6.48-3.792c0.543-0.174,0.877-0.721,0.777-1.28l-0.279-1.609   l0.268-2.188c0.018-0.155,0.004-0.312-0.037-0.453c1.094-0.235,1.939-0.165,2.541-0.027c-0.01,0.027-0.033,0.05-0.041,0.08   l-0.596,2.027c-0.055,0.174-0.062,0.36-0.027,0.543l0.195,1.004c0.115,0.578,0.645,0.97,1.24,0.912   C62.234,80.965,62.615,81.392,62.701,81.529z M78.129,77.991c0.039,0.333,0.227,0.636,0.51,0.817   c0.285,0.183,0.637,0.231,0.959,0.129c0.666-0.204,1.502-0.222,2.297-0.044c0.463,0.103,0.764,0.307,0.893,0.6   c0.064,0.147,0.26,0.592-0.373,1.686c-1.129,1.902-2.584,3.538-4.299,4.837c-0.348,0.244-0.605,0.373-0.77,0.373l-0.23-0.223   c-0.057-0.311-0.24-0.591-0.512-0.765c-0.271-0.169-0.6-0.218-0.912-0.133l-1.48,0.404c-0.484,0.164-0.973,0.396-1.283,0.604   c-0.494,0.2-0.664,0.227-0.75,0.227l-0.227-0.19c0.016-0.369-0.15-0.725-0.447-0.952c-0.293-0.227-0.68-0.293-1.035-0.178   c-0.365,0.116-0.727,0.223-0.896,0.289l-0.338,0.049c-0.189,0-0.305-0.04-0.344-0.12c-0.043-0.075-0.012-0.19,0.096-0.351   c0.219-0.338,0.453-0.613,0.682-0.81c0.217-0.187,0.467-0.427,0.701-0.667c1.562-1.453,3.357-2.582,5.33-3.356   c0.49-0.19,0.783-0.693,0.711-1.213l-0.367-2.632c0.098-0.062,0.174-0.129,0.188-0.2c0.545-0.155,1.08-0.334,1.613-0.512   L78.129,77.991z M92.625,56.719c-0.693,6.321-3.73,10.909-9.281,14.017c-0.166,0.036-0.32,0.107-0.449,0.214   c-0.014,0.014-0.014,0.031-0.027,0.044c-0.059,0.019-0.115,0.027-0.172,0.059c-3.273,1.934-8.082,3.507-12.186,4.005l-2.357,0.16   c-2.838,0.089-5.654-0.244-8.361-1.014c-0.186-0.053-0.383-0.062-0.57-0.013c-1.609,0.373-3.201,0.528-4.611,0.462   c-4.453-0.725-8.334-2.649-11.498-5.673c-2.508-2.649-4.299-5.779-5.322-9.282c-1.035-3.689-1.365-7.41-1.066-12.074   c0-0.022-0.01-0.04-0.01-0.066c0.459,0.035,0.92,0.062,1.383,0.062c0,0,0,0,0.002,0c5.33,0,10.383-2.312,13.863-6.344   c1.768-2.05,3.016-4.415,3.734-6.94c0.121,0.014,0.24,0.027,0.367,0c2.996-0.586,5.213-0.751,7.621-0.564   c6.137,0.592,11.439,3.179,15.686,7.603c1.572,2.031,3.373,3.961,5.34,5.726c1.125,1.045,2.479,1.947,4.025,2.694   c1.268,0.604,2.49,0.613,3.578,0.04C92.723,52.108,92.83,54.421,92.625,56.719z"/><path fill="#000000" d="M45.844,32.459c1.672-1.934,1.459-4.858-0.479-6.53c-1.936-1.672-4.861-1.458-6.533,0.48   c-1.67,1.934-1.457,4.858,0.482,6.535C41.248,34.611,44.174,34.397,45.844,32.459z"/></g></svg>